{"title":"The Heat 2013 DVD9rip english Klam","uid":9322866,"size":1864260150,"categoryP":"video","categoryS":"movies","magnet":"?xt=urn:btih:7b3c4761810059ae3da7d6eff9f2c22593c01457&amp;dn=The+Heat+2013+DVD9rip+english+Klam&amp;tr=udp%3A%2F%2Ftracker.openbittorrent.com%3A80&amp;tr=udp%3A%2F%2Fopen.demonii.com%3A1337&amp;tr=udp%3A%2F%2Ftracker.coppersurfer.tk%3A6969&amp;tr=udp%3A%2F%2Fexodus.desync.com%3A6969","seeders":0,"leechers":0,"uploader":"Klambake","files":-1,"time":1386581508,"description":"With: Sandra Bullock, Melissa McCarthy and Kaitlin Olson\n\nSarah Ashburn (Sandra Bullock) is een methodisch onderzoeker bij de FBI, en staat bekend om haar superioriteit en arrogantie. Shannon Mullins (Melissa McCarthy) is een politieagente in Boston, en staat op haar beurt bekend om haar grote bek, een kort lontje en het oppakken van de meest moeilijk te vangen criminelen. Geen van beiden had ooit een partner, of zelfs een goede vriend, maar als deze twee wilde, onverenigbare dames van de wet hun krachten moeten bundelen, om een drugsbaron te vangen, gebeurt er wat niemand ooit voor mogelijk zou houden: Ze worden vrienden!\n\nAn uptight FBI Special Agent is paired with a foul-mouthed Boston cop to take down a ruthless drug lord. \n &lt;a href=&quot;\nhttp://www.imdb.com/title/tt2404463&quot; rel=&quot;nofollow&quot; target=&quot;_NEW&quot;&gt;\nhttp://www.imdb.com/title/tt2404463&lt;/a&gt;\t\n\n--------------------- Dutch Friends 4ever ---------------------\n---------------------------------------------------------------\n- Bezoek ook eens mijn vrienden op: &lt;a href=&quot; http://www.Film-Test.nl&quot; rel=&quot;nofollow&quot; target=&quot;_NEW&quot;&gt; http://www.Film-Test.nl&lt;/a&gt; --\n----- voor mijn Nederlandse Sync. ondertitels ---- en meer ----\n------- http://www.Film-Test.nl ---- Over Films en meer -------\n---------------------------------------------------------------\n\nGeneral:\n\nComplete name                    : The HeatThe Heat.avi\nFormat                           : AVI\nFormat/Info                      : Audio Video Interleave\nFile size                        : 1.74 GiB\nDuration                         : 1h 52mn\nOverall bit rate                 : 2 214 Kbps\n\nVideo:\n\nFormat                           : MPEG-4 Visual\nFormat profile                   : Simple@L3\nFormat settings, BVOP            : No\nFormat settings, QPel            : No\nFormat settings, GMC             : No warppoints\nFormat settings, Matrix          : Default (H.263)\nCodec ID                         : XVID\nCodec ID/Hint                    : XviD\nDuration                         : 1h 52mn\nBit rate                         : 1 755 Kbps\nWidth                            : 720 pixels\nHeight                           : 304 pixels\nDisplay aspect ratio             : 2.35:1\nFrame rate                       : 25.000 fps\nColor space                      : YUV\nChroma subsampling               : 4:2:0\nBit depth                        : 8 bits\nScan type                        : Progressive\nCompression mode                 : Lossy\nBits/(Pixel*Frame)               : 0.321\nStream size                      : 1.38 GiB (79%)\nWriting library                  : XviD 1.1.2 (UTC 2006-11-01)\n\nAudio:\n\nFormat                           : AC-3\nFormat/Info                      : Audio Coding 3\nMode extension                   : CM (complete main)\nCodec ID                         : 2000\nDuration                         : 1h 52mn\nBit rate mode                    : Constant\nBit rate                         : 448 Kbps\nChannel(s)                       : 6 channels\nChannel positions                : Front: L C R, Side: L R, LFE\nSampling rate                    : 48.0 KHz\nBit depth                        : 16 bits\nCompression mode                 : Lossy\nStream size                      : 360 MiB (20%)\nAlignment                        : Aligned on interleaves\nInterleave, duration             : 32 ms (0.80 video frame)\nInterleave, preload duration     : 576 ms","torrent":{"xt":"urn:btih:7b3c4761810059ae3da7d6eff9f2c22593c01457","amp;dn":"The+Heat+2013+DVD9rip+english+Klam","amp;tr":["udp%3A%2F%2Ftracker.openbittorrent.com%3A80","udp%3A%2F%2Fopen.demonii.com%3A1337","udp%3A%2F%2Ftracker.coppersurfer.tk%3A6969","udp%3A%2F%2Fexodus.desync.com%3A6969"],"infoHash":"7b3c4761810059ae3da7d6eff9f2c22593c01457","infoHashBuffer":{"type":"Buffer","data":[123,60,71,97,129,0,89,174,61,167,214,239,249,242,194,37,147,192,20,87]},"announce":[],"urlList":[]}}